HIERARCHY
ROOT Hips
{
	OFFSET 0.000000 121.760803 0.000000
	CHANNELS 6 Xposition Yposition Zposition Xrotation Yrotation Zrotation 
	JOINT Spine
	{
		OFFSET 0.072000 7.257294 -0.789700
		CHANNELS 3 Xrotation Yrotation Zrotation
		JOINT Spine1
		{
			OFFSET 0.000000 12.508769 -0.658067
			CHANNELS 3 Xrotation Yrotation Zrotation
			JOINT Spine1_split
			{
				OFFSET 0.000000 12.508769 -0.658067
				CHANNELS 3 Xrotation Yrotation Zrotation
				JOINT Spine2
				{
					OFFSET 0.000000 12.508769 -0.658067
					CHANNELS 3 Xrotation Yrotation Zrotation
					JOINT Neck
					{
						OFFSET 0.000000 14.033295 7.520400
						CHANNELS 3 Xrotation Yrotation Zrotation
						JOINT Head
						{
							OFFSET 0.000000 8.198502 5.703100
							CHANNELS 3 Xrotation Yrotation Zrotation
							JOINT HeadTop_End
							{
								OFFSET 0.000000 17.760803 13.332701
								CHANNELS 3 Xrotation Yrotation Zrotation
								End Site
								{
									OFFSET 0.000000 0.000000 0.000000
								}
							}
						}
					}
					JOINT LeftShoulder
					{
						OFFSET 6.292450 5.785301 -0.669000
						CHANNELS 3 Xrotation Yrotation Zrotation
						JOINT LeftShoulder_split
						{
							OFFSET 6.292450 5.785301 -0.669000
							CHANNELS 3 Xrotation Yrotation Zrotation
							JOINT LeftArm
							{
								OFFSET 13.907140 -6.093903 1.965100
								CHANNELS 3 Xrotation Yrotation Zrotation
								JOINT LeftForeArm
								{
									OFFSET 34.140198 0.000000 0.000000
									CHANNELS 3 Xrotation Yrotation Zrotation
									JOINT LeftHand
									{
										OFFSET 40.960209 0.000000 0.000000
										CHANNELS 3 Xrotation Yrotation Zrotation
										JOINT LeftHandThumb1
										{
											OFFSET 10.006996 -7.170425 9.573125
											CHANNELS 3 Xrotation Yrotation Zrotation
											JOINT LeftHandThumb2
											{
												OFFSET 1.835007 -1.059448 1.059443
												CHANNELS 3 Xrotation Yrotation Zrotation
												JOINT LeftHandThumb3
												{
													OFFSET 2.112267 -1.219513 1.219518
													CHANNELS 3 Xrotation Yrotation Zrotation
													JOINT LeftHandThumb4
													{
														OFFSET 4.843811 -2.796570 2.796576
														CHANNELS 3 Xrotation Yrotation Zrotation
														End Site
														{
															OFFSET 0.000000 0.000000 0.000000
														}
													}
												}
											}
										}
										JOINT LeftHandIndex1
										{
											OFFSET 18.389847 -0.922348 4.596882
											CHANNELS 3 Xrotation Yrotation Zrotation
											JOINT LeftHandIndex2
											{
												OFFSET 4.711273 0.000000 0.000000
												CHANNELS 3 Xrotation Yrotation Zrotation
												JOINT LeftHandIndex3
												{
													OFFSET 2.886131 0.000000 0.000000
													CHANNELS 3 Xrotation Yrotation Zrotation
													JOINT LeftHandIndex4
													{
														OFFSET 6.145912 0.000000 0.000000
														CHANNELS 3 Xrotation Yrotation Zrotation
														End Site
														{
															OFFSET 0.000000 0.000000 0.000000
														}
													}
												}
											}
										}
										JOINT LeftHandMiddle1
										{
											OFFSET 18.013008 0.000000 0.000000
											CHANNELS 3 Xrotation Yrotation Zrotation
											JOINT LeftHandMiddle2
											{
												OFFSET 4.946693 0.000000 0.000000
												CHANNELS 3 Xrotation Yrotation Zrotation
												JOINT LeftHandMiddle3
												{
													OFFSET 3.342232 0.000000 0.000000
													CHANNELS 3 Xrotation Yrotation Zrotation
													JOINT LeftHandMiddle4
													{
														OFFSET 4.461754 0.000000 0.000000
														CHANNELS 3 Xrotation Yrotation Zrotation
														End Site
														{
															OFFSET 0.000000 0.000000 0.000000
														}
													}
												}
											}
										}
										JOINT LeftHandRing1
										{
											OFFSET 15.849892 -0.102921 -4.126150
											CHANNELS 3 Xrotation Yrotation Zrotation
											JOINT LeftHandRing2
											{
												OFFSET 3.527054 0.000000 0.000000
												CHANNELS 3 Xrotation Yrotation Zrotation
												JOINT LeftHandRing3
												{
													OFFSET 2.961098 0.000000 0.000000
													CHANNELS 3 Xrotation Yrotation Zrotation
													JOINT LeftHandRing4
													{
														OFFSET 4.927200 0.000000 0.000000
														CHANNELS 3 Xrotation Yrotation Zrotation
														End Site
														{
															OFFSET 0.000000 0.000000 0.000000
														}
													}
												}
											}
										}
										JOINT LeftHandPinky1
										{
											OFFSET 12.791824 -0.832031 -6.799156
											CHANNELS 3 Xrotation Yrotation Zrotation
											JOINT LeftHandPinky2
											{
												OFFSET 3.327133 0.000000 0.000000
												CHANNELS 3 Xrotation Yrotation Zrotation
												JOINT LeftHandPinky3
												{
													OFFSET 3.014900 0.000000 0.000000
													CHANNELS 3 Xrotation Yrotation Zrotation
													JOINT LeftHandPinky4
													{
														OFFSET 5.847786 0.000000 0.000000
														CHANNELS 3 Xrotation Yrotation Zrotation
														End Site
														{
															OFFSET 0.000000 0.000000 0.000000
														}
													}
												}
											}
										}
									}
								}
							}
						}
					}
					JOINT RightShoulder
					{
						OFFSET -6.292450 5.785301 -0.669000
						CHANNELS 3 Xrotation Yrotation Zrotation
						JOINT RightShoulder_split
						{
							OFFSET -6.292450 5.785301 -0.669000
							CHANNELS 3 Xrotation Yrotation Zrotation
							JOINT RightArm
							{
								OFFSET -13.907140 -6.093903 1.965100
								CHANNELS 3 Xrotation Yrotation Zrotation
								JOINT RightForeArm
								{
									OFFSET -34.140198 0.000000 0.000000
									CHANNELS 3 Xrotation Yrotation Zrotation
									JOINT RightHand
									{
										OFFSET -40.960209 0.000000 0.000000
										CHANNELS 3 Xrotation Yrotation Zrotation
										JOINT RightHandThumb1
										{
											OFFSET -10.007050 -7.170456 9.573117
											CHANNELS 3 Xrotation Yrotation Zrotation
											JOINT RightHandThumb2
											{
												OFFSET -1.835007 -1.059448 1.059443
												CHANNELS 3 Xrotation Yrotation Zrotation
												JOINT RightHandThumb3
												{
													OFFSET -2.112267 -1.219513 1.219518
													CHANNELS 3 Xrotation Yrotation Zrotation
													JOINT RightHandThumb4
													{
														OFFSET -4.843834 -2.796585 2.796590
														CHANNELS 3 Xrotation Yrotation Zrotation
														End Site
														{
															OFFSET 0.000000 0.000000 0.000000
														}
													}
												}
											}
										}
										JOINT RightHandIndex1
										{
											OFFSET -18.389870 -0.922424 4.596786
											CHANNELS 3 Xrotation Yrotation Zrotation
											JOINT RightHandIndex2
											{
												OFFSET -4.711273 0.000000 0.000000
												CHANNELS 3 Xrotation Yrotation Zrotation
												JOINT RightHandIndex3
												{
													OFFSET -2.886131 0.000000 0.000000
													CHANNELS 3 Xrotation Yrotation Zrotation
													JOINT RightHandIndex4
													{
														OFFSET -6.145920 0.000000 0.000000
														CHANNELS 3 Xrotation Yrotation Zrotation
														End Site
														{
															OFFSET 0.000000 0.000000 0.000000
														}
													}
												}
											}
										}
										JOINT RightHandMiddle1
										{
											OFFSET -18.013008 0.000000 0.000000
											CHANNELS 3 Xrotation Yrotation Zrotation
											JOINT RightHandMiddle2
											{
												OFFSET -4.946693 0.000000 0.000000
												CHANNELS 3 Xrotation Yrotation Zrotation
												JOINT RightHandMiddle3
												{
													OFFSET -3.342232 0.000000 0.000000
													CHANNELS 3 Xrotation Yrotation Zrotation
													JOINT RightHandMiddle4
													{
														OFFSET -4.461754 0.000000 0.000000
														CHANNELS 3 Xrotation Yrotation Zrotation
														End Site
														{
															OFFSET 0.000000 0.000000 0.000000
														}
													}
												}
											}
										}
										JOINT RightHandRing1
										{
											OFFSET -15.849876 -0.102936 -4.126237
											CHANNELS 3 Xrotation Yrotation Zrotation
											JOINT RightHandRing2
											{
												OFFSET -3.527054 0.000000 0.000000
												CHANNELS 3 Xrotation Yrotation Zrotation
												JOINT RightHandRing3
												{
													OFFSET -2.961098 0.000000 0.000000
													CHANNELS 3 Xrotation Yrotation Zrotation
													JOINT RightHandRing4
													{
														OFFSET -4.927200 0.000000 0.000000
														CHANNELS 3 Xrotation Yrotation Zrotation
														End Site
														{
															OFFSET 0.000000 0.000000 0.000000
														}
													}
												}
											}
										}
										JOINT RightHandPinky1
										{
											OFFSET -12.791786 -0.832077 -6.799222
											CHANNELS 3 Xrotation Yrotation Zrotation
											JOINT RightHandPinky2
											{
												OFFSET -3.327133 0.000000 0.000000
												CHANNELS 3 Xrotation Yrotation Zrotation
												JOINT RightHandPinky3
												{
													OFFSET -3.014900 0.000000 0.000000
													CHANNELS 3 Xrotation Yrotation Zrotation
													JOINT RightHandPinky4
													{
														OFFSET -5.847786 0.000000 0.000000
														CHANNELS 3 Xrotation Yrotation Zrotation
														End Site
														{
															OFFSET 0.000000 0.000000 0.000000
														}
													}
												}
											}
										}
									}
								}
							}
						}
					}
				}
			}
		}
	}
	JOINT LeftUpLeg
	{
		OFFSET 13.026900 -6.336304 -1.092800
		CHANNELS 3 Xrotation Yrotation Zrotation
		JOINT LeftLeg
		{
			OFFSET 0.524474 -46.096886 9.782700
			CHANNELS 3 Xrotation Yrotation Zrotation
			JOINT LeftFoot
			{
				OFFSET -0.524474 -53.427422 -12.948200
				CHANNELS 3 Xrotation Yrotation Zrotation
				JOINT LeftToeBase
				{
					OFFSET 0.192200 -14.009700 16.364100
					CHANNELS 3 Xrotation Yrotation Zrotation
					JOINT LeftToe_End
					{
						OFFSET -1.784700 -0.561700 9.474800
						CHANNELS 3 Xrotation Yrotation Zrotation
						End Site
						{
							OFFSET 0.000000 0.000000 0.000000
						}
					}
				}
			}
		}
	}
	JOINT RightUpLeg
	{
		OFFSET -12.883000 -6.336304 -1.092800
		CHANNELS 3 Xrotation Yrotation Zrotation
		JOINT RightLeg
		{
			OFFSET -0.524587 -46.096825 9.782800
			CHANNELS 3 Xrotation Yrotation Zrotation
			JOINT RightFoot
			{
				OFFSET 0.524587 -53.427383 -12.948300
				CHANNELS 3 Xrotation Yrotation Zrotation
				JOINT RightToeBase
				{
					OFFSET -0.192200 -14.009700 16.364100
					CHANNELS 3 Xrotation Yrotation Zrotation
					JOINT RightToe_End
					{
						OFFSET 1.784700 -0.561700 9.474800
						CHANNELS 3 Xrotation Yrotation Zrotation
						End Site
						{
							OFFSET 0.000000 0.000000 0.000000
						}
					}
				}
			}
		}
	}
}
MOTION
Frames: 4
Frame Time: 0.016667
3.246943 40.568336 -28.623222 35.529158 3.040317 2.164114 20.876244 4.978343 -5.680327 16.625268 2.079676 -1.485669 0.000000 0.000000 0.000000 17.328736 1.234475 -2.301337 5.476111 -1.525563 3.253848 0.036667 -8.619862 6.396878 -0.000000 -0.000000 -0.000000 1.353982 -36.456647 -6.881259 0.000000 0.000000 0.000000 -62.004491 -39.879890 -54.567713 0.000003 -60.951864 -0.000006 -18.879889 -14.506188 -10.306272 46.706855 -54.290930 -12.631197 3.448333 53.010871 10.294959 55.540971 55.566642 -29.377873 -0.000001 0.000001 -0.000000 6.697737 5.391173 -58.720434 3.793613 5.478566 -69.379887 1.468824 3.880759 -41.449696 0.000001 0.000001 -0.000001 -2.544106 3.154091 -51.895210 5.923345 5.850616 -90.709106 2.207241 4.581028 -51.433244 -0.000001 0.000001 0.000002 0.963605 5.963276 -53.197885 4.594730 5.715041 -77.580191 2.697992 4.931282 -57.346582 0.000001 0.000001 0.000003 -0.907394 26.005018 -39.715494 3.064068 5.146685 -61.512602 0.533957 2.445510 -24.630171 -0.000001 -0.000002 0.000000 0.501204 13.720770 0.229929 0.000000 0.000000 0.000000 -44.186884 22.328126 43.767907 0.000005 66.682003 0.000003 -26.725443 16.671150 -4.017986 69.260229 51.829869 -9.321558 -17.238354 -69.068335 -27.413589 100.202010 -53.850567 76.704677 -0.000002 -0.000000 0.000001 4.914263 -3.615831 60.176501 3.071671 -4.379530 70.075951 1.182038 -3.102359 41.707382 0.000002 0.000001 0.000002 0.967456 -5.391928 56.500407 4.691397 -4.657043 90.421562 2.232037 -3.977133 58.590695 0.000002 -0.000003 -0.000001 3.739665 -7.060343 61.039290 4.198933 -4.634612 84.346928 2.796380 -4.270037 66.426752 -0.000000 -0.000001 -0.000001 1.020329 -22.211471 53.091873 2.717051 -4.234628 65.356741 0.312887 -1.679842 21.100635 -0.000002 -0.000000 -0.000001 -87.454787 -13.636049 4.449059 128.939806 0.779586 -1.975595 43.671413 3.057092 -23.352289 13.378129 3.467970 15.806403 0.000004 0.000001 0.000001 -77.877277 23.754411 -18.573665 128.783599 7.287679 3.491195 33.484087 9.299979 16.327805 -22.292527 -1.889906 -13.855522 -0.000000 0.000002 -0.000000 
2.974562 40.344170 -29.308029 33.214964 2.187931 2.158587 21.201734 4.690808 -6.382357 17.022959 1.980985 -1.805814 0.000000 0.000000 0.000000 18.108129 1.141503 -2.575392 5.617644 -1.520869 3.438338 1.609229 -7.888319 6.936110 0.000000 0.000000 0.000000 0.477530 -34.381799 -9.362759 0.000000 0.000000 0.000000 -61.426166 -41.959399 -53.402217 0.000020 -61.272917 0.000019 -22.963489 -13.256060 -12.254853 46.706384 -54.290431 -12.630056 3.450917 53.011294 10.293379 55.540103 55.566222 -29.375657 0.000002 -0.000002 0.000001 6.698406 5.389813 -58.719942 3.793561 5.478561 -69.379375 1.468923 3.880859 -41.451141 0.000001 -0.000000 -0.000001 -2.545109 3.153135 -51.894203 5.923206 5.850618 -90.707870 2.207200 4.580991 -51.432745 -0.000001 0.000001 0.000003 0.964050 5.963667 -53.199271 4.594575 5.715019 -77.578593 2.697883 4.931226 -57.345408 -0.000000 -0.000000 -0.000004 -0.905737 26.004139 -39.717229 3.064185 5.146750 -61.513879 0.533956 2.445512 -24.630144 0.000000 0.000002 0.000000 0.583483 12.269624 0.145179 0.000000 0.000000 0.000000 -46.315226 24.522712 46.813454 0.000018 65.396063 -0.000005 -21.012635 17.831676 -3.834775 69.234165 51.862084 -9.337172 -17.171538 -69.029116 -27.340752 99.875944 -53.626124 76.456407 0.000004 -0.000002 0.000002 4.909852 -3.611822 60.155047 3.069809 -4.378861 70.051383 1.180993 -3.101163 41.687756 0.000002 0.000002 0.000002 0.966401 -5.390594 56.478920 4.689405 -4.657065 90.396994 2.230676 -3.976277 58.571017 -0.000001 0.000000 -0.000000 3.737754 -7.059900 61.017693 4.196934 -4.634425 84.322319 2.794940 -4.269387 66.407088 -0.000001 0.000001 -0.000002 1.013320 -22.210938 53.073329 2.715652 -4.233976 65.337637 0.312891 -1.679840 21.100732 0.000001 -0.000002 0.000000 -85.943949 -14.076957 5.152458 129.601637 0.228767 -1.788626 44.046637 3.013509 -23.790013 13.379121 3.474786 15.822237 0.000005 -0.000000 0.000000 -78.158879 22.925240 -16.548606 129.708106 6.460783 2.682902 34.361862 8.972417 16.505401 -22.314390 -1.880551 -13.824019 -0.000000 0.000000 -0.000000 
2.781875 40.229935 -29.752571 31.504736 1.587171 2.130868 21.408504 4.331916 -6.760721 17.202566 1.870333 -1.986120 0.000000 0.000000 0.000000 18.500457 1.040075 -2.690533 5.684557 -1.489048 3.465679 2.673362 -7.397686 7.196647 0.000000 -0.000000 0.000000 -0.501351 -31.291077 -12.871380 0.000000 0.000000 0.000000 -60.476722 -44.977366 -51.911743 -0.000019 -61.886493 -0.000023 -28.497581 -11.740408 -12.578092 46.706070 -54.289916 -12.628693 3.453648 53.011752 10.291728 55.538109 55.565126 -29.372477 0.000000 0.000002 0.000006 6.699122 5.388237 -58.718740 3.793493 5.478487 -69.378289 1.468999 3.880976 -41.452620 0.000000 -0.000002 0.000001 -2.546223 3.152083 -51.892980 5.923087 5.850621 -90.706579 2.207099 4.580911 -51.431499 -0.000002 -0.000001 -0.000003 0.964514 5.964073 -53.200702 4.594411 5.714979 -77.576892 2.697754 4.931155 -57.344069 -0.000001 0.000000 0.000001 -0.903901 26.003148 -39.719159 3.064304 5.146834 -61.515368 0.533958 2.445515 -24.630142 -0.000000 -0.000000 0.000002 0.552208 11.477478 0.087594 0.000000 0.000000 0.000000 -48.643200 26.757862 49.917153 0.000015 63.773572 -0.000000 -14.598402 19.870914 -3.658884 69.205628 51.896399 -9.358295 -17.081325 -68.975956 -27.242153 99.509053 -53.376839 76.179996 -0.000004 0.000002 -0.000001 4.904417 -3.606890 60.131087 3.067719 -4.378092 70.024015 1.179808 -3.099831 41.665858 0.000001 -0.000002 0.000004 0.965187 -5.389109 56.454963 4.687181 -4.657075 90.369577 2.229162 -3.975363 58.549071 -0.000000 -0.000001 0.000000 3.735625 -7.059432 60.993610 4.194722 -4.634210 84.294916 2.793293 -4.268670 66.385067 -0.000001 -0.000002 0.000000 1.005554 -22.210320 53.052627 2.714053 -4.233251 65.316259 0.312890 -1.679847 21.100833 -0.000004 0.000000 0.000001 -84.662169 -14.324582 5.678379 129.995480 -0.045614 -1.626747 44.247489 2.924701 -24.040131 13.390383 3.485946 15.847762 0.000006 -0.000000 0.000000 -78.147206 22.247482 -15.104543 130.266269 6.114104 2.187108 34.932770 8.474588 16.801528 -22.355139 -1.862906 -13.763946 -0.000000 0.000001 -0.000000 
2.636685 40.170425 -30.071693 30.141003 1.114470 2.100399 21.526441 3.978045 -7.002257 17.308528 1.764368 -2.107502 0.000000 0.000000 0.000000 18.739558 0.943237 -2.743025 5.724950 -1.448774 3.430580 3.539774 -7.023166 7.344355 0.000000 0.000000 -0.000000 -1.190615 -27.773400 -16.681118 0.000000 0.000000 0.000000 -58.867433 -47.971622 -49.903316 0.000023 -63.757630 0.000029 -34.031291 -10.583137 -11.107800 46.705701 -54.289287 -12.627151 3.456528 53.012298 10.290115 55.535302 55.563603 -29.368734 0.000001 0.000000 0.000006 6.699900 5.386501 -58.717415 3.793334 5.478477 -69.376936 1.469132 3.881096 -41.454160 -0.000001 0.000000 -0.000002 -2.547359 3.151036 -51.891795 5.922931 5.850634 -90.705028 2.206993 4.580823 -51.430133 0.000000 0.000001 0.000002 0.965015 5.964499 -53.202215 4.594232 5.714941 -77.575178 2.697654 4.931066 -57.342751 0.000001 0.000001 0.000001 -0.902030 26.002098 -39.721143 3.064455 5.146921 -61.517028 0.533963 2.445507 -24.630147 -0.000000 0.000001 -0.000001 0.425785 11.211948 0.063302 0.000000 0.000000 0.000000 -50.733604 28.440155 52.955580 -0.000012 62.997574 0.000000 -8.850926 21.981454 -3.713570 69.176006 51.931206 -9.384702 -16.972030 -68.909335 -27.122623 99.116037 -53.111691 75.887186 0.000001 -0.000000 0.000001 4.898561 -3.601235 60.105501 3.065477 -4.377281 69.994809 1.178533 -3.098407 41.642461 -0.000001 -0.000001 -0.000001 0.963881 -5.387468 56.429367 4.684796 -4.657083 90.340324 2.227536 -3.974369 58.525630 0.000002 0.000002 0.000002 3.733377 -7.058921 60.967921 4.192347 -4.633949 84.265669 2.791533 -4.267924 66.361633 0.000000 0.000000 0.000001 0.997331 -22.209620 53.030579 2.712373 -4.232478 65.293467 0.312904 -1.679859 21.100968 0.000002 -0.000002 0.000001 -83.504049 -14.707702 6.154741 130.252896 -0.253088 -1.611299 44.355013 2.718191 -24.130213 13.400660 3.495260 15.869036 0.000001 0.000000 0.000000 -78.013355 21.684649 -14.012685 130.636616 6.114020 1.880636 35.351434 7.825734 17.144139 -22.395533 -1.845436 -13.704019 -0.000000 0.000000 -0.000000 
